<mxfile host="www.draw.io" modified="2023-04-04T14:12:29.084Z" agent="Mozilla/5.0 (Windows NT 10.0; Win64; x64; rv:109.0) Gecko/20100101 Firefox/111.0" etag="_KcklUa3grtpicSHxyMd" version="21.1.4" type="device" pages="8">
  <diagram name="Страница 1" id="Y3WZMYLCkIBY4HJFGVrx">
    <mxGraphModel dx="1434" dy="782" grid="1" gridSize="10" guides="1" tooltips="1" connect="1" arrows="1" fold="1" page="1" pageScale="1" pageWidth="827" pageHeight="1169" math="0" shadow="0">
      <root>
        <mxCell id="0" />
        <mxCell id="1" parent="0" />
        <mxCell id="GWEcz4P1H_agRhUUFGYt-1" value="string::string()" style="text;html=1;align=center;verticalAlign=middle;resizable=0;points=[];autosize=1;strokeColor=none;fillColor=none;" vertex="1" parent="1">
          <mxGeometry x="170" y="150" width="100" height="30" as="geometry" />
        </mxCell>
        <mxCell id="GWEcz4P1H_agRhUUFGYt-10" style="edgeStyle=orthogonalEdgeStyle;rounded=0;orthogonalLoop=1;jettySize=auto;html=1;exitX=0.5;exitY=1;exitDx=0;exitDy=0;entryX=0.5;entryY=0;entryDx=0;entryDy=0;" edge="1" parent="1" source="GWEcz4P1H_agRhUUFGYt-2" target="GWEcz4P1H_agRhUUFGYt-3">
          <mxGeometry relative="1" as="geometry" />
        </mxCell>
        <mxCell id="GWEcz4P1H_agRhUUFGYt-2" value="Начало" style="ellipse;whiteSpace=wrap;html=1;" vertex="1" parent="1">
          <mxGeometry x="250" y="180" width="120" height="80" as="geometry" />
        </mxCell>
        <mxCell id="GWEcz4P1H_agRhUUFGYt-7" style="edgeStyle=orthogonalEdgeStyle;rounded=0;orthogonalLoop=1;jettySize=auto;html=1;exitX=0.5;exitY=1;exitDx=0;exitDy=0;entryX=0.5;entryY=0;entryDx=0;entryDy=0;" edge="1" parent="1" source="GWEcz4P1H_agRhUUFGYt-3" target="GWEcz4P1H_agRhUUFGYt-4">
          <mxGeometry relative="1" as="geometry" />
        </mxCell>
        <mxCell id="GWEcz4P1H_agRhUUFGYt-3" value="length = 0" style="rounded=0;whiteSpace=wrap;html=1;" vertex="1" parent="1">
          <mxGeometry x="250" y="310" width="120" height="60" as="geometry" />
        </mxCell>
        <mxCell id="GWEcz4P1H_agRhUUFGYt-6" style="edgeStyle=orthogonalEdgeStyle;rounded=0;orthogonalLoop=1;jettySize=auto;html=1;exitX=0.5;exitY=1;exitDx=0;exitDy=0;entryX=0.5;entryY=0;entryDx=0;entryDy=0;" edge="1" parent="1" source="GWEcz4P1H_agRhUUFGYt-4" target="GWEcz4P1H_agRhUUFGYt-5">
          <mxGeometry relative="1" as="geometry" />
        </mxCell>
        <mxCell id="GWEcz4P1H_agRhUUFGYt-4" value="text = new char[1]" style="rounded=0;whiteSpace=wrap;html=1;" vertex="1" parent="1">
          <mxGeometry x="250" y="400" width="120" height="60" as="geometry" />
        </mxCell>
        <mxCell id="GWEcz4P1H_agRhUUFGYt-9" style="edgeStyle=orthogonalEdgeStyle;rounded=0;orthogonalLoop=1;jettySize=auto;html=1;exitX=0.5;exitY=1;exitDx=0;exitDy=0;entryX=0.5;entryY=0;entryDx=0;entryDy=0;" edge="1" parent="1" source="GWEcz4P1H_agRhUUFGYt-5" target="GWEcz4P1H_agRhUUFGYt-8">
          <mxGeometry relative="1" as="geometry" />
        </mxCell>
        <mxCell id="GWEcz4P1H_agRhUUFGYt-5" value="text[0] = &#39;\0&#39;" style="rounded=0;whiteSpace=wrap;html=1;" vertex="1" parent="1">
          <mxGeometry x="250" y="480" width="120" height="60" as="geometry" />
        </mxCell>
        <mxCell id="GWEcz4P1H_agRhUUFGYt-8" value="Конец" style="ellipse;whiteSpace=wrap;html=1;" vertex="1" parent="1">
          <mxGeometry x="250" y="570" width="120" height="80" as="geometry" />
        </mxCell>
      </root>
    </mxGraphModel>
  </diagram>
  <diagram id="20rBNd47-A78KIu39GHS" name="Страница 2">
    <mxGraphModel dx="1434" dy="782" grid="1" gridSize="10" guides="1" tooltips="1" connect="1" arrows="1" fold="1" page="1" pageScale="1" pageWidth="827" pageHeight="1169" math="0" shadow="0">
      <root>
        <mxCell id="0" />
        <mxCell id="1" parent="0" />
        <mxCell id="-6FQv8jZarinb-JjTFRj-2" value="string::string(const char* _text)" style="text;html=1;align=center;verticalAlign=middle;resizable=0;points=[];autosize=1;strokeColor=none;fillColor=none;" vertex="1" parent="1">
          <mxGeometry x="25" y="125" width="190" height="30" as="geometry" />
        </mxCell>
        <mxCell id="-6FQv8jZarinb-JjTFRj-6" style="edgeStyle=orthogonalEdgeStyle;rounded=0;orthogonalLoop=1;jettySize=auto;html=1;exitX=0.5;exitY=1;exitDx=0;exitDy=0;entryX=0.5;entryY=0;entryDx=0;entryDy=0;" edge="1" parent="1" source="-6FQv8jZarinb-JjTFRj-3" target="-6FQv8jZarinb-JjTFRj-4">
          <mxGeometry relative="1" as="geometry" />
        </mxCell>
        <mxCell id="-6FQv8jZarinb-JjTFRj-3" value="Начало" style="ellipse;whiteSpace=wrap;html=1;" vertex="1" parent="1">
          <mxGeometry x="190" y="180" width="120" height="80" as="geometry" />
        </mxCell>
        <mxCell id="-6FQv8jZarinb-JjTFRj-7" style="edgeStyle=orthogonalEdgeStyle;rounded=0;orthogonalLoop=1;jettySize=auto;html=1;exitX=0.5;exitY=1;exitDx=0;exitDy=0;entryX=0.5;entryY=0;entryDx=0;entryDy=0;" edge="1" parent="1" source="-6FQv8jZarinb-JjTFRj-4" target="-6FQv8jZarinb-JjTFRj-5">
          <mxGeometry relative="1" as="geometry" />
        </mxCell>
        <mxCell id="-6FQv8jZarinb-JjTFRj-4" value="length = 0" style="rounded=0;whiteSpace=wrap;html=1;" vertex="1" parent="1">
          <mxGeometry x="190" y="300" width="120" height="60" as="geometry" />
        </mxCell>
        <mxCell id="-6FQv8jZarinb-JjTFRj-9" style="edgeStyle=orthogonalEdgeStyle;rounded=0;orthogonalLoop=1;jettySize=auto;html=1;exitX=0.5;exitY=1;exitDx=0;exitDy=0;entryX=0.5;entryY=0;entryDx=0;entryDy=0;" edge="1" parent="1" source="-6FQv8jZarinb-JjTFRj-5" target="-6FQv8jZarinb-JjTFRj-8">
          <mxGeometry relative="1" as="geometry" />
        </mxCell>
        <mxCell id="-6FQv8jZarinb-JjTFRj-5" value="char const* p_text = _text" style="rounded=0;whiteSpace=wrap;html=1;" vertex="1" parent="1">
          <mxGeometry x="175" y="380" width="150" height="60" as="geometry" />
        </mxCell>
        <mxCell id="-6FQv8jZarinb-JjTFRj-12" style="edgeStyle=orthogonalEdgeStyle;rounded=0;orthogonalLoop=1;jettySize=auto;html=1;exitX=0.5;exitY=1;exitDx=0;exitDy=0;entryX=0.5;entryY=0;entryDx=0;entryDy=0;" edge="1" parent="1" source="-6FQv8jZarinb-JjTFRj-8" target="-6FQv8jZarinb-JjTFRj-10">
          <mxGeometry relative="1" as="geometry" />
        </mxCell>
        <mxCell id="-6FQv8jZarinb-JjTFRj-18" style="edgeStyle=orthogonalEdgeStyle;rounded=0;orthogonalLoop=1;jettySize=auto;html=1;exitX=1;exitY=0.5;exitDx=0;exitDy=0;entryX=0.5;entryY=0;entryDx=0;entryDy=0;" edge="1" parent="1" source="-6FQv8jZarinb-JjTFRj-8" target="-6FQv8jZarinb-JjTFRj-16">
          <mxGeometry relative="1" as="geometry" />
        </mxCell>
        <mxCell id="-6FQv8jZarinb-JjTFRj-8" value="*p_text != &#39;\0&#39;" style="rhombus;whiteSpace=wrap;html=1;" vertex="1" parent="1">
          <mxGeometry x="210" y="490" width="80" height="80" as="geometry" />
        </mxCell>
        <mxCell id="-6FQv8jZarinb-JjTFRj-13" style="edgeStyle=orthogonalEdgeStyle;rounded=0;orthogonalLoop=1;jettySize=auto;html=1;exitX=0.5;exitY=1;exitDx=0;exitDy=0;entryX=0.5;entryY=0;entryDx=0;entryDy=0;" edge="1" parent="1" source="-6FQv8jZarinb-JjTFRj-10" target="-6FQv8jZarinb-JjTFRj-11">
          <mxGeometry relative="1" as="geometry" />
        </mxCell>
        <mxCell id="-6FQv8jZarinb-JjTFRj-10" value="length++" style="rounded=0;whiteSpace=wrap;html=1;" vertex="1" parent="1">
          <mxGeometry x="190" y="590" width="120" height="60" as="geometry" />
        </mxCell>
        <mxCell id="-6FQv8jZarinb-JjTFRj-15" style="edgeStyle=orthogonalEdgeStyle;rounded=0;orthogonalLoop=1;jettySize=auto;html=1;exitX=0.5;exitY=1;exitDx=0;exitDy=0;" edge="1" parent="1" source="-6FQv8jZarinb-JjTFRj-11">
          <mxGeometry relative="1" as="geometry">
            <mxPoint x="250" y="460" as="targetPoint" />
            <Array as="points">
              <mxPoint x="250" y="750" />
              <mxPoint x="170" y="750" />
              <mxPoint x="170" y="460" />
            </Array>
          </mxGeometry>
        </mxCell>
        <mxCell id="-6FQv8jZarinb-JjTFRj-11" value="p_text++" style="rounded=0;whiteSpace=wrap;html=1;" vertex="1" parent="1">
          <mxGeometry x="190" y="670" width="120" height="60" as="geometry" />
        </mxCell>
        <mxCell id="-6FQv8jZarinb-JjTFRj-14" value="+" style="text;html=1;align=center;verticalAlign=middle;resizable=0;points=[];autosize=1;strokeColor=none;fillColor=none;" vertex="1" parent="1">
          <mxGeometry x="215" y="560" width="30" height="30" as="geometry" />
        </mxCell>
        <mxCell id="-6FQv8jZarinb-JjTFRj-19" style="edgeStyle=orthogonalEdgeStyle;rounded=0;orthogonalLoop=1;jettySize=auto;html=1;exitX=0.5;exitY=1;exitDx=0;exitDy=0;entryX=0.5;entryY=0;entryDx=0;entryDy=0;" edge="1" parent="1" source="-6FQv8jZarinb-JjTFRj-16" target="-6FQv8jZarinb-JjTFRj-17">
          <mxGeometry relative="1" as="geometry" />
        </mxCell>
        <mxCell id="-6FQv8jZarinb-JjTFRj-16" value="text = new char[length + 1]" style="rounded=0;whiteSpace=wrap;html=1;" vertex="1" parent="1">
          <mxGeometry x="490" y="555" width="170" height="60" as="geometry" />
        </mxCell>
        <mxCell id="-6FQv8jZarinb-JjTFRj-21" style="edgeStyle=orthogonalEdgeStyle;rounded=0;orthogonalLoop=1;jettySize=auto;html=1;exitX=0.5;exitY=1;exitDx=0;exitDy=0;entryX=0.5;entryY=0;entryDx=0;entryDy=0;" edge="1" parent="1" source="-6FQv8jZarinb-JjTFRj-17" target="-6FQv8jZarinb-JjTFRj-20">
          <mxGeometry relative="1" as="geometry" />
        </mxCell>
        <mxCell id="-6FQv8jZarinb-JjTFRj-17" value="p_text = _text" style="rounded=0;whiteSpace=wrap;html=1;" vertex="1" parent="1">
          <mxGeometry x="515" y="640" width="120" height="60" as="geometry" />
        </mxCell>
        <mxCell id="-6FQv8jZarinb-JjTFRj-23" style="edgeStyle=orthogonalEdgeStyle;rounded=0;orthogonalLoop=1;jettySize=auto;html=1;exitX=0.5;exitY=1;exitDx=0;exitDy=0;entryX=0.5;entryY=0;entryDx=0;entryDy=0;" edge="1" parent="1" source="-6FQv8jZarinb-JjTFRj-20" target="-6FQv8jZarinb-JjTFRj-22">
          <mxGeometry relative="1" as="geometry" />
        </mxCell>
        <mxCell id="-6FQv8jZarinb-JjTFRj-26" style="edgeStyle=orthogonalEdgeStyle;rounded=0;orthogonalLoop=1;jettySize=auto;html=1;exitX=0;exitY=0.5;exitDx=0;exitDy=0;entryX=0.5;entryY=0;entryDx=0;entryDy=0;" edge="1" parent="1" source="-6FQv8jZarinb-JjTFRj-20" target="-6FQv8jZarinb-JjTFRj-25">
          <mxGeometry relative="1" as="geometry" />
        </mxCell>
        <mxCell id="-6FQv8jZarinb-JjTFRj-20" value="int i = 0; *p_text != &#39;\0&#39;; i++, p_text++" style="shape=hexagon;perimeter=hexagonPerimeter2;whiteSpace=wrap;html=1;fixedSize=1;" vertex="1" parent="1">
          <mxGeometry x="462.5" y="730" width="225" height="80" as="geometry" />
        </mxCell>
        <mxCell id="-6FQv8jZarinb-JjTFRj-24" style="edgeStyle=orthogonalEdgeStyle;rounded=0;orthogonalLoop=1;jettySize=auto;html=1;exitX=0.5;exitY=1;exitDx=0;exitDy=0;entryX=1;entryY=0.5;entryDx=0;entryDy=0;" edge="1" parent="1" source="-6FQv8jZarinb-JjTFRj-22" target="-6FQv8jZarinb-JjTFRj-20">
          <mxGeometry relative="1" as="geometry">
            <Array as="points">
              <mxPoint x="575" y="910" />
              <mxPoint x="708" y="910" />
              <mxPoint x="708" y="770" />
            </Array>
          </mxGeometry>
        </mxCell>
        <mxCell id="-6FQv8jZarinb-JjTFRj-22" value="text[i] = *p_text" style="rounded=0;whiteSpace=wrap;html=1;" vertex="1" parent="1">
          <mxGeometry x="515" y="830" width="120" height="60" as="geometry" />
        </mxCell>
        <mxCell id="-6FQv8jZarinb-JjTFRj-28" style="edgeStyle=orthogonalEdgeStyle;rounded=0;orthogonalLoop=1;jettySize=auto;html=1;exitX=0.5;exitY=1;exitDx=0;exitDy=0;entryX=0.5;entryY=0;entryDx=0;entryDy=0;" edge="1" parent="1" source="-6FQv8jZarinb-JjTFRj-25" target="-6FQv8jZarinb-JjTFRj-27">
          <mxGeometry relative="1" as="geometry" />
        </mxCell>
        <mxCell id="-6FQv8jZarinb-JjTFRj-25" value="text[length] = &#39;\0&#39;" style="rounded=0;whiteSpace=wrap;html=1;" vertex="1" parent="1">
          <mxGeometry x="325" y="800" width="120" height="60" as="geometry" />
        </mxCell>
        <mxCell id="-6FQv8jZarinb-JjTFRj-27" value="Конец" style="ellipse;whiteSpace=wrap;html=1;" vertex="1" parent="1">
          <mxGeometry x="325" y="900" width="120" height="80" as="geometry" />
        </mxCell>
      </root>
    </mxGraphModel>
  </diagram>
  <diagram id="ZBne7z0CKl6bekM7QFii" name="Страница 3">
    <mxGraphModel dx="1434" dy="782" grid="1" gridSize="10" guides="1" tooltips="1" connect="1" arrows="1" fold="1" page="1" pageScale="1" pageWidth="827" pageHeight="1169" math="0" shadow="0">
      <root>
        <mxCell id="0" />
        <mxCell id="1" parent="0" />
        <mxCell id="nXXIi0H4otDgB4Wq40Dq-2" value="string::string(const string&amp;amp; _example)" style="text;html=1;align=center;verticalAlign=middle;resizable=0;points=[];autosize=1;strokeColor=none;fillColor=none;" vertex="1" parent="1">
          <mxGeometry x="175" y="235" width="230" height="30" as="geometry" />
        </mxCell>
        <mxCell id="nXXIi0H4otDgB4Wq40Dq-5" style="edgeStyle=orthogonalEdgeStyle;rounded=0;orthogonalLoop=1;jettySize=auto;html=1;exitX=0.5;exitY=1;exitDx=0;exitDy=0;entryX=0.5;entryY=0;entryDx=0;entryDy=0;" edge="1" parent="1" source="nXXIi0H4otDgB4Wq40Dq-3" target="nXXIi0H4otDgB4Wq40Dq-4">
          <mxGeometry relative="1" as="geometry" />
        </mxCell>
        <mxCell id="nXXIi0H4otDgB4Wq40Dq-3" value="Начало" style="ellipse;whiteSpace=wrap;html=1;" vertex="1" parent="1">
          <mxGeometry x="354" y="280" width="120" height="80" as="geometry" />
        </mxCell>
        <mxCell id="nXXIi0H4otDgB4Wq40Dq-7" style="edgeStyle=orthogonalEdgeStyle;rounded=0;orthogonalLoop=1;jettySize=auto;html=1;exitX=0.5;exitY=1;exitDx=0;exitDy=0;entryX=0.5;entryY=0;entryDx=0;entryDy=0;" edge="1" parent="1" source="nXXIi0H4otDgB4Wq40Dq-4" target="nXXIi0H4otDgB4Wq40Dq-6">
          <mxGeometry relative="1" as="geometry" />
        </mxCell>
        <mxCell id="nXXIi0H4otDgB4Wq40Dq-4" value="length = _example.length" style="rounded=0;whiteSpace=wrap;html=1;" vertex="1" parent="1">
          <mxGeometry x="334" y="400" width="160" height="60" as="geometry" />
        </mxCell>
        <mxCell id="nXXIi0H4otDgB4Wq40Dq-9" style="edgeStyle=orthogonalEdgeStyle;rounded=0;orthogonalLoop=1;jettySize=auto;html=1;exitX=0.5;exitY=1;exitDx=0;exitDy=0;entryX=0.5;entryY=0;entryDx=0;entryDy=0;" edge="1" parent="1" source="nXXIi0H4otDgB4Wq40Dq-6" target="nXXIi0H4otDgB4Wq40Dq-8">
          <mxGeometry relative="1" as="geometry" />
        </mxCell>
        <mxCell id="nXXIi0H4otDgB4Wq40Dq-6" value="text = new char[length + 1]" style="rounded=0;whiteSpace=wrap;html=1;" vertex="1" parent="1">
          <mxGeometry x="336" y="480" width="156" height="60" as="geometry" />
        </mxCell>
        <mxCell id="nXXIi0H4otDgB4Wq40Dq-11" style="edgeStyle=orthogonalEdgeStyle;rounded=0;orthogonalLoop=1;jettySize=auto;html=1;exitX=0.5;exitY=1;exitDx=0;exitDy=0;entryX=0.5;entryY=0;entryDx=0;entryDy=0;" edge="1" parent="1" source="nXXIi0H4otDgB4Wq40Dq-8" target="nXXIi0H4otDgB4Wq40Dq-10">
          <mxGeometry relative="1" as="geometry" />
        </mxCell>
        <mxCell id="nXXIi0H4otDgB4Wq40Dq-8" value="char const* p_example = _example.text" style="rounded=0;whiteSpace=wrap;html=1;" vertex="1" parent="1">
          <mxGeometry x="296" y="570" width="236" height="60" as="geometry" />
        </mxCell>
        <mxCell id="nXXIi0H4otDgB4Wq40Dq-13" style="edgeStyle=orthogonalEdgeStyle;rounded=0;orthogonalLoop=1;jettySize=auto;html=1;exitX=0.5;exitY=1;exitDx=0;exitDy=0;entryX=0.5;entryY=0;entryDx=0;entryDy=0;" edge="1" parent="1" source="nXXIi0H4otDgB4Wq40Dq-10" target="nXXIi0H4otDgB4Wq40Dq-12">
          <mxGeometry relative="1" as="geometry" />
        </mxCell>
        <mxCell id="nXXIi0H4otDgB4Wq40Dq-16" style="edgeStyle=orthogonalEdgeStyle;rounded=0;orthogonalLoop=1;jettySize=auto;html=1;exitX=0;exitY=0.5;exitDx=0;exitDy=0;entryX=0.5;entryY=0;entryDx=0;entryDy=0;" edge="1" parent="1" source="nXXIi0H4otDgB4Wq40Dq-10" target="nXXIi0H4otDgB4Wq40Dq-15">
          <mxGeometry relative="1" as="geometry" />
        </mxCell>
        <mxCell id="nXXIi0H4otDgB4Wq40Dq-10" value="int i = 0; *p_example != &#39;\0&#39;; i++, p_example++" style="shape=hexagon;perimeter=hexagonPerimeter2;whiteSpace=wrap;html=1;fixedSize=1;" vertex="1" parent="1">
          <mxGeometry x="276" y="660" width="276" height="80" as="geometry" />
        </mxCell>
        <mxCell id="nXXIi0H4otDgB4Wq40Dq-14" style="edgeStyle=orthogonalEdgeStyle;rounded=0;orthogonalLoop=1;jettySize=auto;html=1;exitX=0.5;exitY=1;exitDx=0;exitDy=0;entryX=1;entryY=0.5;entryDx=0;entryDy=0;" edge="1" parent="1" source="nXXIi0H4otDgB4Wq40Dq-12" target="nXXIi0H4otDgB4Wq40Dq-10">
          <mxGeometry relative="1" as="geometry">
            <Array as="points">
              <mxPoint x="414" y="860" />
              <mxPoint x="570" y="860" />
              <mxPoint x="570" y="700" />
            </Array>
          </mxGeometry>
        </mxCell>
        <mxCell id="nXXIi0H4otDgB4Wq40Dq-12" value="text[i] = *p_example" style="rounded=0;whiteSpace=wrap;html=1;" vertex="1" parent="1">
          <mxGeometry x="354" y="780" width="120" height="60" as="geometry" />
        </mxCell>
        <mxCell id="nXXIi0H4otDgB4Wq40Dq-18" style="edgeStyle=orthogonalEdgeStyle;rounded=0;orthogonalLoop=1;jettySize=auto;html=1;exitX=0.5;exitY=1;exitDx=0;exitDy=0;entryX=0.5;entryY=0;entryDx=0;entryDy=0;" edge="1" parent="1" source="nXXIi0H4otDgB4Wq40Dq-15" target="nXXIi0H4otDgB4Wq40Dq-17">
          <mxGeometry relative="1" as="geometry" />
        </mxCell>
        <mxCell id="nXXIi0H4otDgB4Wq40Dq-15" value="text[length] = &#39;\0&#39;" style="rounded=0;whiteSpace=wrap;html=1;" vertex="1" parent="1">
          <mxGeometry x="120" y="770" width="120" height="60" as="geometry" />
        </mxCell>
        <mxCell id="nXXIi0H4otDgB4Wq40Dq-17" value="Конец" style="ellipse;whiteSpace=wrap;html=1;" vertex="1" parent="1">
          <mxGeometry x="120" y="870" width="120" height="80" as="geometry" />
        </mxCell>
      </root>
    </mxGraphModel>
  </diagram>
  <diagram id="D_PqjMJzs7dNEkIWqLHc" name="Страница 4">
    <mxGraphModel dx="1434" dy="782" grid="1" gridSize="10" guides="1" tooltips="1" connect="1" arrows="1" fold="1" page="1" pageScale="1" pageWidth="827" pageHeight="1169" math="0" shadow="0">
      <root>
        <mxCell id="0" />
        <mxCell id="1" parent="0" />
        <mxCell id="fO6qcLwhFjzB6kIyhJoj-1" value="string&amp;amp; string::operator=(const string&amp;amp; _example)" style="text;html=1;align=center;verticalAlign=middle;resizable=0;points=[];autosize=1;strokeColor=none;fillColor=none;" vertex="1" parent="1">
          <mxGeometry x="35" y="225" width="290" height="30" as="geometry" />
        </mxCell>
        <mxCell id="fO6qcLwhFjzB6kIyhJoj-4" style="edgeStyle=orthogonalEdgeStyle;rounded=0;orthogonalLoop=1;jettySize=auto;html=1;exitX=0.5;exitY=1;exitDx=0;exitDy=0;entryX=0.5;entryY=0;entryDx=0;entryDy=0;" edge="1" parent="1" source="fO6qcLwhFjzB6kIyhJoj-2" target="fO6qcLwhFjzB6kIyhJoj-3">
          <mxGeometry relative="1" as="geometry" />
        </mxCell>
        <mxCell id="fO6qcLwhFjzB6kIyhJoj-2" value="Начало" style="ellipse;whiteSpace=wrap;html=1;" vertex="1" parent="1">
          <mxGeometry x="294" y="270" width="120" height="80" as="geometry" />
        </mxCell>
        <mxCell id="fO6qcLwhFjzB6kIyhJoj-6" style="edgeStyle=orthogonalEdgeStyle;rounded=0;orthogonalLoop=1;jettySize=auto;html=1;exitX=0;exitY=0.5;exitDx=0;exitDy=0;entryX=0.5;entryY=0;entryDx=0;entryDy=0;" edge="1" parent="1" source="fO6qcLwhFjzB6kIyhJoj-3" target="fO6qcLwhFjzB6kIyhJoj-5">
          <mxGeometry relative="1" as="geometry" />
        </mxCell>
        <mxCell id="fO6qcLwhFjzB6kIyhJoj-8" style="edgeStyle=orthogonalEdgeStyle;rounded=0;orthogonalLoop=1;jettySize=auto;html=1;exitX=1;exitY=0.5;exitDx=0;exitDy=0;" edge="1" parent="1" source="fO6qcLwhFjzB6kIyhJoj-3" target="fO6qcLwhFjzB6kIyhJoj-7">
          <mxGeometry relative="1" as="geometry">
            <Array as="points">
              <mxPoint x="437" y="430" />
              <mxPoint x="437" y="540" />
              <mxPoint x="340" y="540" />
            </Array>
          </mxGeometry>
        </mxCell>
        <mxCell id="fO6qcLwhFjzB6kIyhJoj-3" value="this == &amp;_example" style="rhombus;whiteSpace=wrap;html=1;" vertex="1" parent="1">
          <mxGeometry x="291" y="390" width="126" height="80" as="geometry" />
        </mxCell>
        <mxCell id="fO6qcLwhFjzB6kIyhJoj-5" value="return *this" style="ellipse;whiteSpace=wrap;html=1;" vertex="1" parent="1">
          <mxGeometry x="174" y="480" width="120" height="80" as="geometry" />
        </mxCell>
        <mxCell id="fO6qcLwhFjzB6kIyhJoj-10" style="edgeStyle=orthogonalEdgeStyle;rounded=0;orthogonalLoop=1;jettySize=auto;html=1;exitX=0.5;exitY=1;exitDx=0;exitDy=0;entryX=0.5;entryY=0;entryDx=0;entryDy=0;" edge="1" parent="1" source="fO6qcLwhFjzB6kIyhJoj-7" target="fO6qcLwhFjzB6kIyhJoj-9">
          <mxGeometry relative="1" as="geometry" />
        </mxCell>
        <mxCell id="fO6qcLwhFjzB6kIyhJoj-7" value="delete[] text" style="shape=process;whiteSpace=wrap;html=1;backgroundOutline=1;" vertex="1" parent="1">
          <mxGeometry x="280" y="585" width="120" height="60" as="geometry" />
        </mxCell>
        <mxCell id="fO6qcLwhFjzB6kIyhJoj-12" style="edgeStyle=orthogonalEdgeStyle;rounded=0;orthogonalLoop=1;jettySize=auto;html=1;exitX=0.5;exitY=1;exitDx=0;exitDy=0;entryX=0.5;entryY=0;entryDx=0;entryDy=0;" edge="1" parent="1" source="fO6qcLwhFjzB6kIyhJoj-9" target="fO6qcLwhFjzB6kIyhJoj-11">
          <mxGeometry relative="1" as="geometry" />
        </mxCell>
        <mxCell id="fO6qcLwhFjzB6kIyhJoj-9" value="length = _example.length" style="rounded=0;whiteSpace=wrap;html=1;" vertex="1" parent="1">
          <mxGeometry x="280" y="670" width="120" height="60" as="geometry" />
        </mxCell>
        <mxCell id="fO6qcLwhFjzB6kIyhJoj-14" style="edgeStyle=orthogonalEdgeStyle;rounded=0;orthogonalLoop=1;jettySize=auto;html=1;exitX=0.5;exitY=1;exitDx=0;exitDy=0;entryX=0.5;entryY=0;entryDx=0;entryDy=0;" edge="1" parent="1" source="fO6qcLwhFjzB6kIyhJoj-11" target="fO6qcLwhFjzB6kIyhJoj-13">
          <mxGeometry relative="1" as="geometry" />
        </mxCell>
        <mxCell id="fO6qcLwhFjzB6kIyhJoj-11" value="text = new char[length + 1]" style="rounded=0;whiteSpace=wrap;html=1;" vertex="1" parent="1">
          <mxGeometry x="260" y="750" width="160" height="60" as="geometry" />
        </mxCell>
        <mxCell id="fO6qcLwhFjzB6kIyhJoj-18" style="edgeStyle=orthogonalEdgeStyle;rounded=0;orthogonalLoop=1;jettySize=auto;html=1;exitX=0.5;exitY=1;exitDx=0;exitDy=0;entryX=0.5;entryY=0;entryDx=0;entryDy=0;" edge="1" parent="1" source="fO6qcLwhFjzB6kIyhJoj-13" target="fO6qcLwhFjzB6kIyhJoj-17">
          <mxGeometry relative="1" as="geometry" />
        </mxCell>
        <mxCell id="fO6qcLwhFjzB6kIyhJoj-13" value="char const* p_example = _example.text" style="rounded=0;whiteSpace=wrap;html=1;" vertex="1" parent="1">
          <mxGeometry x="210" y="840" width="260" height="60" as="geometry" />
        </mxCell>
        <mxCell id="fO6qcLwhFjzB6kIyhJoj-15" value="+" style="text;html=1;align=center;verticalAlign=middle;resizable=0;points=[];autosize=1;strokeColor=none;fillColor=none;" vertex="1" parent="1">
          <mxGeometry x="275" y="395" width="30" height="30" as="geometry" />
        </mxCell>
        <mxCell id="fO6qcLwhFjzB6kIyhJoj-16" value="-" style="text;html=1;align=center;verticalAlign=middle;resizable=0;points=[];autosize=1;strokeColor=none;fillColor=none;" vertex="1" parent="1">
          <mxGeometry x="399" y="395" width="30" height="30" as="geometry" />
        </mxCell>
        <mxCell id="fO6qcLwhFjzB6kIyhJoj-20" style="edgeStyle=orthogonalEdgeStyle;rounded=0;orthogonalLoop=1;jettySize=auto;html=1;exitX=0.5;exitY=1;exitDx=0;exitDy=0;entryX=0.5;entryY=0;entryDx=0;entryDy=0;" edge="1" parent="1" source="fO6qcLwhFjzB6kIyhJoj-17" target="fO6qcLwhFjzB6kIyhJoj-19">
          <mxGeometry relative="1" as="geometry" />
        </mxCell>
        <mxCell id="fO6qcLwhFjzB6kIyhJoj-23" style="edgeStyle=orthogonalEdgeStyle;rounded=0;orthogonalLoop=1;jettySize=auto;html=1;exitX=0;exitY=0.5;exitDx=0;exitDy=0;entryX=0.5;entryY=0;entryDx=0;entryDy=0;" edge="1" parent="1" source="fO6qcLwhFjzB6kIyhJoj-17" target="fO6qcLwhFjzB6kIyhJoj-22">
          <mxGeometry relative="1" as="geometry" />
        </mxCell>
        <mxCell id="fO6qcLwhFjzB6kIyhJoj-17" value="int i = 0; *p_example != &#39;\0&#39;; i++, p_example++" style="shape=hexagon;perimeter=hexagonPerimeter2;whiteSpace=wrap;html=1;fixedSize=1;" vertex="1" parent="1">
          <mxGeometry x="200" y="940" width="280" height="80" as="geometry" />
        </mxCell>
        <mxCell id="fO6qcLwhFjzB6kIyhJoj-21" style="edgeStyle=orthogonalEdgeStyle;rounded=0;orthogonalLoop=1;jettySize=auto;html=1;exitX=0.5;exitY=1;exitDx=0;exitDy=0;entryX=1;entryY=0.5;entryDx=0;entryDy=0;" edge="1" parent="1" source="fO6qcLwhFjzB6kIyhJoj-19" target="fO6qcLwhFjzB6kIyhJoj-17">
          <mxGeometry relative="1" as="geometry">
            <Array as="points">
              <mxPoint x="340" y="1140" />
              <mxPoint x="500" y="1140" />
              <mxPoint x="500" y="980" />
            </Array>
          </mxGeometry>
        </mxCell>
        <mxCell id="fO6qcLwhFjzB6kIyhJoj-19" value="text[i] = *p_example" style="rounded=0;whiteSpace=wrap;html=1;" vertex="1" parent="1">
          <mxGeometry x="280" y="1060" width="120" height="60" as="geometry" />
        </mxCell>
        <mxCell id="fO6qcLwhFjzB6kIyhJoj-25" style="edgeStyle=orthogonalEdgeStyle;rounded=0;orthogonalLoop=1;jettySize=auto;html=1;exitX=0.5;exitY=1;exitDx=0;exitDy=0;entryX=0.5;entryY=0;entryDx=0;entryDy=0;" edge="1" parent="1" source="fO6qcLwhFjzB6kIyhJoj-22" target="fO6qcLwhFjzB6kIyhJoj-24">
          <mxGeometry relative="1" as="geometry" />
        </mxCell>
        <mxCell id="fO6qcLwhFjzB6kIyhJoj-22" value="text[length] = &#39;\0&#39;" style="rounded=0;whiteSpace=wrap;html=1;" vertex="1" parent="1">
          <mxGeometry x="50" y="1030" width="120" height="60" as="geometry" />
        </mxCell>
        <mxCell id="fO6qcLwhFjzB6kIyhJoj-24" value="return *this" style="ellipse;whiteSpace=wrap;html=1;" vertex="1" parent="1">
          <mxGeometry x="50" y="1140" width="120" height="80" as="geometry" />
        </mxCell>
      </root>
    </mxGraphModel>
  </diagram>
  <diagram id="oYpwa8I4DmCNran1voBY" name="Страница 5">
    <mxGraphModel dx="1434" dy="782" grid="1" gridSize="10" guides="1" tooltips="1" connect="1" arrows="1" fold="1" page="1" pageScale="1" pageWidth="827" pageHeight="1169" math="0" shadow="0">
      <root>
        <mxCell id="0" />
        <mxCell id="1" parent="0" />
        <mxCell id="KLck6bknC4NkXvWasfIo-1" value="string operator+(const string&amp;amp; _first, const string&amp;amp; _second)" style="text;html=1;align=center;verticalAlign=middle;resizable=0;points=[];autosize=1;strokeColor=none;fillColor=none;" vertex="1" parent="1">
          <mxGeometry x="15" y="125" width="350" height="30" as="geometry" />
        </mxCell>
        <mxCell id="KLck6bknC4NkXvWasfIo-4" style="edgeStyle=orthogonalEdgeStyle;rounded=0;orthogonalLoop=1;jettySize=auto;html=1;exitX=0.5;exitY=1;exitDx=0;exitDy=0;entryX=0.5;entryY=0;entryDx=0;entryDy=0;" edge="1" parent="1" source="KLck6bknC4NkXvWasfIo-2" target="KLck6bknC4NkXvWasfIo-3">
          <mxGeometry relative="1" as="geometry" />
        </mxCell>
        <mxCell id="KLck6bknC4NkXvWasfIo-2" value="Начало" style="ellipse;whiteSpace=wrap;html=1;" vertex="1" parent="1">
          <mxGeometry x="354" y="180" width="120" height="80" as="geometry" />
        </mxCell>
        <mxCell id="KLck6bknC4NkXvWasfIo-6" style="edgeStyle=orthogonalEdgeStyle;rounded=0;orthogonalLoop=1;jettySize=auto;html=1;exitX=0.5;exitY=1;exitDx=0;exitDy=0;entryX=0.5;entryY=0;entryDx=0;entryDy=0;" edge="1" parent="1" source="KLck6bknC4NkXvWasfIo-3" target="KLck6bknC4NkXvWasfIo-5">
          <mxGeometry relative="1" as="geometry" />
        </mxCell>
        <mxCell id="KLck6bknC4NkXvWasfIo-3" value="string temp{ _first.length + _second.length }" style="rounded=0;whiteSpace=wrap;html=1;" vertex="1" parent="1">
          <mxGeometry x="271" y="290" width="286" height="60" as="geometry" />
        </mxCell>
        <mxCell id="KLck6bknC4NkXvWasfIo-8" style="edgeStyle=orthogonalEdgeStyle;rounded=0;orthogonalLoop=1;jettySize=auto;html=1;exitX=0.5;exitY=1;exitDx=0;exitDy=0;entryX=0.5;entryY=0;entryDx=0;entryDy=0;" edge="1" parent="1" source="KLck6bknC4NkXvWasfIo-5" target="KLck6bknC4NkXvWasfIo-7">
          <mxGeometry relative="1" as="geometry" />
        </mxCell>
        <mxCell id="KLck6bknC4NkXvWasfIo-11" style="edgeStyle=orthogonalEdgeStyle;rounded=0;orthogonalLoop=1;jettySize=auto;html=1;exitX=0;exitY=0.5;exitDx=0;exitDy=0;entryX=0.5;entryY=0;entryDx=0;entryDy=0;" edge="1" parent="1" source="KLck6bknC4NkXvWasfIo-5" target="KLck6bknC4NkXvWasfIo-10">
          <mxGeometry relative="1" as="geometry">
            <Array as="points">
              <mxPoint x="306" y="440" />
              <mxPoint x="306" y="670" />
            </Array>
          </mxGeometry>
        </mxCell>
        <mxCell id="KLck6bknC4NkXvWasfIo-5" value="int i = 0; i &lt; _first.length; i++" style="shape=hexagon;perimeter=hexagonPerimeter2;whiteSpace=wrap;html=1;fixedSize=1;" vertex="1" parent="1">
          <mxGeometry x="326" y="400" width="176" height="80" as="geometry" />
        </mxCell>
        <mxCell id="KLck6bknC4NkXvWasfIo-9" style="edgeStyle=orthogonalEdgeStyle;rounded=0;orthogonalLoop=1;jettySize=auto;html=1;exitX=0.5;exitY=1;exitDx=0;exitDy=0;entryX=1;entryY=0.5;entryDx=0;entryDy=0;" edge="1" parent="1" source="KLck6bknC4NkXvWasfIo-7" target="KLck6bknC4NkXvWasfIo-5">
          <mxGeometry relative="1" as="geometry">
            <Array as="points">
              <mxPoint x="414" y="605" />
              <mxPoint x="522" y="605" />
              <mxPoint x="522" y="440" />
            </Array>
          </mxGeometry>
        </mxCell>
        <mxCell id="KLck6bknC4NkXvWasfIo-7" value="temp.text[i] = _first.text[i]" style="rounded=0;whiteSpace=wrap;html=1;" vertex="1" parent="1">
          <mxGeometry x="336" y="525" width="156" height="60" as="geometry" />
        </mxCell>
        <mxCell id="KLck6bknC4NkXvWasfIo-13" style="edgeStyle=orthogonalEdgeStyle;rounded=0;orthogonalLoop=1;jettySize=auto;html=1;exitX=0.5;exitY=1;exitDx=0;exitDy=0;entryX=0.5;entryY=0;entryDx=0;entryDy=0;" edge="1" parent="1" source="KLck6bknC4NkXvWasfIo-10" target="KLck6bknC4NkXvWasfIo-12">
          <mxGeometry relative="1" as="geometry" />
        </mxCell>
        <mxCell id="KLck6bknC4NkXvWasfIo-16" style="edgeStyle=orthogonalEdgeStyle;rounded=0;orthogonalLoop=1;jettySize=auto;html=1;exitX=0;exitY=0.5;exitDx=0;exitDy=0;entryX=0.5;entryY=0;entryDx=0;entryDy=0;" edge="1" parent="1" source="KLck6bknC4NkXvWasfIo-10" target="KLck6bknC4NkXvWasfIo-15">
          <mxGeometry relative="1" as="geometry">
            <Array as="points">
              <mxPoint x="280" y="740" />
              <mxPoint x="280" y="920" />
              <mxPoint x="462" y="920" />
            </Array>
          </mxGeometry>
        </mxCell>
        <mxCell id="KLck6bknC4NkXvWasfIo-10" value="int i = _first.length; i &lt; temp.length; i++" style="shape=hexagon;perimeter=hexagonPerimeter2;whiteSpace=wrap;html=1;fixedSize=1;" vertex="1" parent="1">
          <mxGeometry x="354" y="700" width="216" height="80" as="geometry" />
        </mxCell>
        <mxCell id="KLck6bknC4NkXvWasfIo-14" style="edgeStyle=orthogonalEdgeStyle;rounded=0;orthogonalLoop=1;jettySize=auto;html=1;exitX=0.5;exitY=1;exitDx=0;exitDy=0;entryX=1;entryY=0.5;entryDx=0;entryDy=0;" edge="1" parent="1" source="KLck6bknC4NkXvWasfIo-12" target="KLck6bknC4NkXvWasfIo-10">
          <mxGeometry relative="1" as="geometry">
            <Array as="points">
              <mxPoint x="462" y="890" />
              <mxPoint x="600" y="890" />
              <mxPoint x="600" y="740" />
            </Array>
          </mxGeometry>
        </mxCell>
        <mxCell id="KLck6bknC4NkXvWasfIo-12" value="temp.text[i] = _second.text[i - _first.length]" style="rounded=0;whiteSpace=wrap;html=1;" vertex="1" parent="1">
          <mxGeometry x="338" y="810" width="248" height="60" as="geometry" />
        </mxCell>
        <mxCell id="KLck6bknC4NkXvWasfIo-18" style="edgeStyle=orthogonalEdgeStyle;rounded=0;orthogonalLoop=1;jettySize=auto;html=1;exitX=0.5;exitY=1;exitDx=0;exitDy=0;entryX=0.5;entryY=0;entryDx=0;entryDy=0;" edge="1" parent="1" source="KLck6bknC4NkXvWasfIo-15" target="KLck6bknC4NkXvWasfIo-17">
          <mxGeometry relative="1" as="geometry" />
        </mxCell>
        <mxCell id="KLck6bknC4NkXvWasfIo-15" value="temp.text[temp.length] = &#39;\0&#39;" style="rounded=0;whiteSpace=wrap;html=1;" vertex="1" parent="1">
          <mxGeometry x="378" y="950" width="168" height="60" as="geometry" />
        </mxCell>
        <mxCell id="KLck6bknC4NkXvWasfIo-17" value="return temp" style="ellipse;whiteSpace=wrap;html=1;" vertex="1" parent="1">
          <mxGeometry x="402" y="1050" width="120" height="80" as="geometry" />
        </mxCell>
      </root>
    </mxGraphModel>
  </diagram>
  <diagram id="iv3QAvS7knO8mw7Ul6TR" name="Страница 6">
    <mxGraphModel dx="2261" dy="782" grid="1" gridSize="10" guides="1" tooltips="1" connect="1" arrows="1" fold="1" page="1" pageScale="1" pageWidth="827" pageHeight="1169" math="0" shadow="0">
      <root>
        <mxCell id="0" />
        <mxCell id="1" parent="0" />
        <mxCell id="ZibeWakjnLx6jij-op7w-2" value="int string::operator==(const string&amp;amp; rhv)" style="text;html=1;align=center;verticalAlign=middle;resizable=0;points=[];autosize=1;strokeColor=none;fillColor=none;" vertex="1" parent="1">
          <mxGeometry x="30" y="135" width="240" height="30" as="geometry" />
        </mxCell>
        <mxCell id="ZibeWakjnLx6jij-op7w-7" style="edgeStyle=orthogonalEdgeStyle;rounded=0;orthogonalLoop=1;jettySize=auto;html=1;exitX=0.5;exitY=1;exitDx=0;exitDy=0;entryX=0.5;entryY=0;entryDx=0;entryDy=0;" edge="1" parent="1" source="ZibeWakjnLx6jij-op7w-3" target="ZibeWakjnLx6jij-op7w-4">
          <mxGeometry relative="1" as="geometry" />
        </mxCell>
        <mxCell id="ZibeWakjnLx6jij-op7w-3" value="Начало" style="ellipse;whiteSpace=wrap;html=1;" vertex="1" parent="1">
          <mxGeometry x="330" y="180" width="120" height="80" as="geometry" />
        </mxCell>
        <mxCell id="ZibeWakjnLx6jij-op7w-6" style="edgeStyle=orthogonalEdgeStyle;rounded=0;orthogonalLoop=1;jettySize=auto;html=1;exitX=0.5;exitY=1;exitDx=0;exitDy=0;entryX=0.5;entryY=0;entryDx=0;entryDy=0;" edge="1" parent="1" source="ZibeWakjnLx6jij-op7w-4" target="ZibeWakjnLx6jij-op7w-5">
          <mxGeometry relative="1" as="geometry" />
        </mxCell>
        <mxCell id="ZibeWakjnLx6jij-op7w-4" value="const char* s1 = this-&amp;gt;text" style="rounded=0;whiteSpace=wrap;html=1;" vertex="1" parent="1">
          <mxGeometry x="315" y="290" width="150" height="60" as="geometry" />
        </mxCell>
        <mxCell id="ZibeWakjnLx6jij-op7w-9" style="edgeStyle=orthogonalEdgeStyle;rounded=0;orthogonalLoop=1;jettySize=auto;html=1;exitX=0.5;exitY=1;exitDx=0;exitDy=0;entryX=0.5;entryY=0;entryDx=0;entryDy=0;" edge="1" parent="1" source="ZibeWakjnLx6jij-op7w-5" target="ZibeWakjnLx6jij-op7w-8">
          <mxGeometry relative="1" as="geometry" />
        </mxCell>
        <mxCell id="ZibeWakjnLx6jij-op7w-5" value="const char* s2 = rhv.text" style="rounded=0;whiteSpace=wrap;html=1;" vertex="1" parent="1">
          <mxGeometry x="323.5" y="370" width="133" height="60" as="geometry" />
        </mxCell>
        <mxCell id="ZibeWakjnLx6jij-op7w-12" style="edgeStyle=orthogonalEdgeStyle;rounded=0;orthogonalLoop=1;jettySize=auto;html=1;exitX=0.5;exitY=1;exitDx=0;exitDy=0;entryX=0.5;entryY=0;entryDx=0;entryDy=0;" edge="1" parent="1" source="ZibeWakjnLx6jij-op7w-8" target="ZibeWakjnLx6jij-op7w-10">
          <mxGeometry relative="1" as="geometry" />
        </mxCell>
        <mxCell id="ZibeWakjnLx6jij-op7w-16" style="edgeStyle=orthogonalEdgeStyle;rounded=0;orthogonalLoop=1;jettySize=auto;html=1;exitX=0;exitY=0.5;exitDx=0;exitDy=0;entryX=0.5;entryY=0;entryDx=0;entryDy=0;" edge="1" parent="1" source="ZibeWakjnLx6jij-op7w-8" target="ZibeWakjnLx6jij-op7w-15">
          <mxGeometry relative="1" as="geometry" />
        </mxCell>
        <mxCell id="ZibeWakjnLx6jij-op7w-8" value="*s1 &amp;&amp; (*s1==*s2)" style="rhombus;whiteSpace=wrap;html=1;" vertex="1" parent="1">
          <mxGeometry x="325" y="460" width="130" height="80" as="geometry" />
        </mxCell>
        <mxCell id="ZibeWakjnLx6jij-op7w-13" style="edgeStyle=orthogonalEdgeStyle;rounded=0;orthogonalLoop=1;jettySize=auto;html=1;exitX=0.5;exitY=1;exitDx=0;exitDy=0;entryX=0.5;entryY=0;entryDx=0;entryDy=0;" edge="1" parent="1" source="ZibeWakjnLx6jij-op7w-10" target="ZibeWakjnLx6jij-op7w-11">
          <mxGeometry relative="1" as="geometry" />
        </mxCell>
        <mxCell id="ZibeWakjnLx6jij-op7w-10" value="s1++" style="rounded=0;whiteSpace=wrap;html=1;" vertex="1" parent="1">
          <mxGeometry x="330" y="580" width="120" height="60" as="geometry" />
        </mxCell>
        <mxCell id="ZibeWakjnLx6jij-op7w-14" style="edgeStyle=orthogonalEdgeStyle;rounded=0;orthogonalLoop=1;jettySize=auto;html=1;exitX=1;exitY=0.5;exitDx=0;exitDy=0;" edge="1" parent="1" source="ZibeWakjnLx6jij-op7w-11">
          <mxGeometry relative="1" as="geometry">
            <mxPoint x="390" y="440" as="targetPoint" />
            <Array as="points">
              <mxPoint x="470" y="690" />
              <mxPoint x="470" y="440" />
            </Array>
          </mxGeometry>
        </mxCell>
        <mxCell id="ZibeWakjnLx6jij-op7w-11" value="s2++" style="rounded=0;whiteSpace=wrap;html=1;" vertex="1" parent="1">
          <mxGeometry x="330" y="660" width="120" height="60" as="geometry" />
        </mxCell>
        <mxCell id="ZibeWakjnLx6jij-op7w-15" value="return *(const unsigned char*)(s1) - *(const unsigned char*)(s2)" style="ellipse;whiteSpace=wrap;html=1;" vertex="1" parent="1">
          <mxGeometry x="-180" y="560" width="430" height="80" as="geometry" />
        </mxCell>
      </root>
    </mxGraphModel>
  </diagram>
  <diagram id="F2yXJ45xfXdQ1iuJnhsk" name="Страница 7">
    <mxGraphModel dx="1434" dy="782" grid="1" gridSize="10" guides="1" tooltips="1" connect="1" arrows="1" fold="1" page="1" pageScale="1" pageWidth="827" pageHeight="1169" math="0" shadow="0">
      <root>
        <mxCell id="0" />
        <mxCell id="1" parent="0" />
        <mxCell id="DAc9-R3R9LcNM5D0nKEB-1" value="std::istream&amp;amp; operator&amp;gt;&amp;gt;(std::istream&amp;amp; os,string&amp;amp; _string)" style="text;html=1;align=center;verticalAlign=middle;resizable=0;points=[];autosize=1;strokeColor=none;fillColor=none;" vertex="1" parent="1">
          <mxGeometry x="20" y="160" width="340" height="30" as="geometry" />
        </mxCell>
        <mxCell id="DAc9-R3R9LcNM5D0nKEB-5" style="edgeStyle=orthogonalEdgeStyle;rounded=0;orthogonalLoop=1;jettySize=auto;html=1;exitX=0.5;exitY=1;exitDx=0;exitDy=0;entryX=0.5;entryY=0;entryDx=0;entryDy=0;" edge="1" parent="1" source="DAc9-R3R9LcNM5D0nKEB-2" target="DAc9-R3R9LcNM5D0nKEB-3">
          <mxGeometry relative="1" as="geometry" />
        </mxCell>
        <mxCell id="DAc9-R3R9LcNM5D0nKEB-2" value="Начало" style="ellipse;whiteSpace=wrap;html=1;" vertex="1" parent="1">
          <mxGeometry x="340" y="210" width="120" height="80" as="geometry" />
        </mxCell>
        <mxCell id="DAc9-R3R9LcNM5D0nKEB-6" style="edgeStyle=orthogonalEdgeStyle;rounded=0;orthogonalLoop=1;jettySize=auto;html=1;exitX=0.5;exitY=1;exitDx=0;exitDy=0;entryX=0.5;entryY=0;entryDx=0;entryDy=0;" edge="1" parent="1" source="DAc9-R3R9LcNM5D0nKEB-3" target="DAc9-R3R9LcNM5D0nKEB-4">
          <mxGeometry relative="1" as="geometry" />
        </mxCell>
        <mxCell id="DAc9-R3R9LcNM5D0nKEB-3" value="os&gt;&gt;_string.text" style="rounded=0;whiteSpace=wrap;html=1;" vertex="1" parent="1">
          <mxGeometry x="340" y="320" width="120" height="60" as="geometry" />
        </mxCell>
        <mxCell id="DAc9-R3R9LcNM5D0nKEB-9" style="edgeStyle=orthogonalEdgeStyle;rounded=0;orthogonalLoop=1;jettySize=auto;html=1;exitX=0.5;exitY=1;exitDx=0;exitDy=0;entryX=0.5;entryY=0;entryDx=0;entryDy=0;" edge="1" parent="1" source="DAc9-R3R9LcNM5D0nKEB-4" target="DAc9-R3R9LcNM5D0nKEB-7">
          <mxGeometry relative="1" as="geometry" />
        </mxCell>
        <mxCell id="DAc9-R3R9LcNM5D0nKEB-4" value="int counter {0}" style="rounded=0;whiteSpace=wrap;html=1;" vertex="1" parent="1">
          <mxGeometry x="340" y="420" width="120" height="60" as="geometry" />
        </mxCell>
        <mxCell id="DAc9-R3R9LcNM5D0nKEB-10" style="edgeStyle=orthogonalEdgeStyle;rounded=0;orthogonalLoop=1;jettySize=auto;html=1;exitX=0.5;exitY=1;exitDx=0;exitDy=0;entryX=0.5;entryY=0;entryDx=0;entryDy=0;" edge="1" parent="1" source="DAc9-R3R9LcNM5D0nKEB-7" target="DAc9-R3R9LcNM5D0nKEB-8">
          <mxGeometry relative="1" as="geometry" />
        </mxCell>
        <mxCell id="DAc9-R3R9LcNM5D0nKEB-7" value="const char* it =_string.text" style="rounded=0;whiteSpace=wrap;html=1;" vertex="1" parent="1">
          <mxGeometry x="315" y="500" width="170" height="60" as="geometry" />
        </mxCell>
        <mxCell id="DAc9-R3R9LcNM5D0nKEB-16" style="edgeStyle=orthogonalEdgeStyle;rounded=0;orthogonalLoop=1;jettySize=auto;html=1;exitX=0.5;exitY=1;exitDx=0;exitDy=0;entryX=0.5;entryY=0;entryDx=0;entryDy=0;" edge="1" parent="1" source="DAc9-R3R9LcNM5D0nKEB-8" target="DAc9-R3R9LcNM5D0nKEB-11">
          <mxGeometry relative="1" as="geometry" />
        </mxCell>
        <mxCell id="DAc9-R3R9LcNM5D0nKEB-19" style="edgeStyle=orthogonalEdgeStyle;rounded=0;orthogonalLoop=1;jettySize=auto;html=1;exitX=0;exitY=0.5;exitDx=0;exitDy=0;entryX=0.5;entryY=0;entryDx=0;entryDy=0;" edge="1" parent="1" source="DAc9-R3R9LcNM5D0nKEB-8" target="DAc9-R3R9LcNM5D0nKEB-18">
          <mxGeometry relative="1" as="geometry" />
        </mxCell>
        <mxCell id="DAc9-R3R9LcNM5D0nKEB-8" value="*it!=&#39;\0&#39;" style="rhombus;whiteSpace=wrap;html=1;" vertex="1" parent="1">
          <mxGeometry x="360" y="610" width="80" height="80" as="geometry" />
        </mxCell>
        <mxCell id="DAc9-R3R9LcNM5D0nKEB-14" style="edgeStyle=orthogonalEdgeStyle;rounded=0;orthogonalLoop=1;jettySize=auto;html=1;exitX=0.5;exitY=1;exitDx=0;exitDy=0;entryX=0.5;entryY=0;entryDx=0;entryDy=0;" edge="1" parent="1" source="DAc9-R3R9LcNM5D0nKEB-11" target="DAc9-R3R9LcNM5D0nKEB-12">
          <mxGeometry relative="1" as="geometry" />
        </mxCell>
        <mxCell id="DAc9-R3R9LcNM5D0nKEB-11" value="it++" style="rounded=0;whiteSpace=wrap;html=1;" vertex="1" parent="1">
          <mxGeometry x="340" y="730" width="120" height="60" as="geometry" />
        </mxCell>
        <mxCell id="DAc9-R3R9LcNM5D0nKEB-17" style="edgeStyle=orthogonalEdgeStyle;rounded=0;orthogonalLoop=1;jettySize=auto;html=1;exitX=0.5;exitY=1;exitDx=0;exitDy=0;" edge="1" parent="1" source="DAc9-R3R9LcNM5D0nKEB-12">
          <mxGeometry relative="1" as="geometry">
            <mxPoint x="400" y="580" as="targetPoint" />
            <Array as="points">
              <mxPoint x="400" y="900" />
              <mxPoint x="560" y="900" />
              <mxPoint x="560" y="580" />
            </Array>
          </mxGeometry>
        </mxCell>
        <mxCell id="DAc9-R3R9LcNM5D0nKEB-12" value="counter++" style="rounded=0;whiteSpace=wrap;html=1;" vertex="1" parent="1">
          <mxGeometry x="340" y="820" width="120" height="60" as="geometry" />
        </mxCell>
        <mxCell id="DAc9-R3R9LcNM5D0nKEB-21" style="edgeStyle=orthogonalEdgeStyle;rounded=0;orthogonalLoop=1;jettySize=auto;html=1;exitX=0.5;exitY=1;exitDx=0;exitDy=0;entryX=0.5;entryY=0;entryDx=0;entryDy=0;" edge="1" parent="1" source="DAc9-R3R9LcNM5D0nKEB-18" target="DAc9-R3R9LcNM5D0nKEB-20">
          <mxGeometry relative="1" as="geometry" />
        </mxCell>
        <mxCell id="DAc9-R3R9LcNM5D0nKEB-18" value="_string.length=counter" style="rounded=0;whiteSpace=wrap;html=1;" vertex="1" parent="1">
          <mxGeometry x="100" y="730" width="160" height="60" as="geometry" />
        </mxCell>
        <mxCell id="DAc9-R3R9LcNM5D0nKEB-20" value="return os" style="ellipse;whiteSpace=wrap;html=1;" vertex="1" parent="1">
          <mxGeometry x="120" y="820" width="120" height="80" as="geometry" />
        </mxCell>
      </root>
    </mxGraphModel>
  </diagram>
  <diagram id="BzBDPwEf-wpxscWgPunY" name="Страница 8">
    <mxGraphModel dx="1434" dy="782" grid="1" gridSize="10" guides="1" tooltips="1" connect="1" arrows="1" fold="1" page="1" pageScale="1" pageWidth="827" pageHeight="1169" math="0" shadow="0">
      <root>
        <mxCell id="0" />
        <mxCell id="1" parent="0" />
        <mxCell id="wLlI3T_1MXMQRPPNIki4-1" value="std::ostream&amp;amp; operator&amp;lt;&amp;lt;(std::ostream&amp;amp; os, const string&amp;amp; _string)" style="text;html=1;align=center;verticalAlign=middle;resizable=0;points=[];autosize=1;strokeColor=none;fillColor=none;" vertex="1" parent="1">
          <mxGeometry x="100" y="225" width="380" height="30" as="geometry" />
        </mxCell>
        <mxCell id="wLlI3T_1MXMQRPPNIki4-4" style="edgeStyle=orthogonalEdgeStyle;rounded=0;orthogonalLoop=1;jettySize=auto;html=1;exitX=0.5;exitY=1;exitDx=0;exitDy=0;entryX=0.5;entryY=0;entryDx=0;entryDy=0;" edge="1" parent="1" source="wLlI3T_1MXMQRPPNIki4-2" target="wLlI3T_1MXMQRPPNIki4-3">
          <mxGeometry relative="1" as="geometry" />
        </mxCell>
        <mxCell id="wLlI3T_1MXMQRPPNIki4-2" value="Начало" style="ellipse;whiteSpace=wrap;html=1;" vertex="1" parent="1">
          <mxGeometry x="354" y="280" width="120" height="80" as="geometry" />
        </mxCell>
        <mxCell id="wLlI3T_1MXMQRPPNIki4-6" style="edgeStyle=orthogonalEdgeStyle;rounded=0;orthogonalLoop=1;jettySize=auto;html=1;exitX=0.5;exitY=1;exitDx=0;exitDy=0;" edge="1" parent="1" source="wLlI3T_1MXMQRPPNIki4-3" target="wLlI3T_1MXMQRPPNIki4-5">
          <mxGeometry relative="1" as="geometry" />
        </mxCell>
        <mxCell id="wLlI3T_1MXMQRPPNIki4-3" value="os &lt;&lt; _string.text" style="rounded=0;whiteSpace=wrap;html=1;" vertex="1" parent="1">
          <mxGeometry x="354" y="390" width="120" height="60" as="geometry" />
        </mxCell>
        <mxCell id="wLlI3T_1MXMQRPPNIki4-5" value="return os" style="ellipse;whiteSpace=wrap;html=1;" vertex="1" parent="1">
          <mxGeometry x="354" y="490" width="120" height="80" as="geometry" />
        </mxCell>
      </root>
    </mxGraphModel>
  </diagram>
</mxfile>
